<svg xmlns="http://www.w3.org/2000/svg" width="30" height="30" fill="none"><rect width="30" height="30" fill="#293A3C" rx="6"/><path fill="#fff" d="M9.71 21.678a1 1 0 0 1-1-1V9.226a1 1 0 0 1 1-1h1.051a1 1 0 0 1 1 1v11.452a1 1 0 0 1-1 1H9.71Zm3.04-6.222a1 1 0 0 1-.01-.665l1.974-5.883a1 1 0 0 1 .948-.682h.903a1 1 0 0 1 .949 1.315l-1.747 5.254a1 1 0 0 0 .009.657l1.774 4.885a1 1 0 0 1-.94 1.341h-.863a1 1 0 0 1-.938-.653l-2.06-5.57ZM19.012 20.333c0-.577.281-1.006.844-1.288.245-.115.505-.173.779-.173.65 0 1.125.25 1.428.75.13.218.195.455.195.71 0 .59-.288 1.013-.866 1.27a1.762 1.762 0 0 1-.757.172c-.664 0-1.14-.256-1.429-.768a1.297 1.297 0 0 1-.194-.673Z"/></svg>